<svg width="16" height="17" viewBox="0 0 16 17" fill="none" xmlns="http://www.w3.org/2000/svg">
<g id="Frame 17964">
<path id="Vector" d="M8.00029 3.08527L7.92715 3.08473C6.72833 3.08473 5.58323 3.30081 4.53184 3.69344L4.59469 3.67286C3.63635 4.00441 2.77468 4.54674 2.0805 5.25528L2.0765 5.25907C1.48955 5.84015 1.15622 6.61012 1.14339 7.41445V7.41716C1.14943 8.07187 1.37584 8.70765 1.78965 9.23191L1.78337 9.22379C2.25344 9.83037 2.85708 10.3328 3.55244 10.6963L3.58044 10.7098L4.35756 11.1333L4.11414 11.9446C3.97088 12.4641 3.75528 12.9633 3.47302 13.429L3.48959 13.3997C4.39008 13.0469 5.22281 12.5554 5.95407 11.9451L5.94436 11.9527L6.32835 11.631L6.8369 11.6819C7.22141 11.7263 7.60837 11.7489 7.99572 11.7496H7.998L8.07114 11.7501C9.26996 11.7501 10.4151 11.5341 11.4664 11.1414L11.4036 11.162C12.3619 10.8305 13.2236 10.2881 13.9178 9.57959L13.9218 9.5758C14.4983 9.0207 14.8543 8.25874 14.8543 7.41825C14.8543 6.57775 14.4983 5.81525 13.9212 5.26015L13.9218 5.2607C13.2386 4.56008 12.3913 4.02138 11.4482 3.68802L11.4036 3.67448C10.4151 3.30244 9.26938 3.08636 8.07057 3.08636L7.99514 3.0869H7.99914L8.00029 3.08527ZM16 7.4177C15.995 8.41876 15.6133 9.38527 14.9235 10.1433L14.9286 10.1379C14.1587 11.0027 13.1759 11.6743 12.067 12.0935L12.0179 12.1097C10.8619 12.5679 9.51852 12.8338 8.11 12.8338L7.99457 12.8332H8.00029C7.54316 12.8322 7.09289 12.8078 6.65005 12.7607L6.70548 12.7655C5.54881 13.7383 4.16409 14.4356 2.66619 14.7996L2.59876 14.8137C2.31135 14.8922 1.96622 14.9578 1.61251 14.9973L1.58109 15H1.53537C1.44607 15.0002 1.35996 14.9685 1.29424 14.9112C1.22285 14.8505 1.17314 14.7702 1.15196 14.6816L1.15139 14.6789V14.6702C1.14115 14.6534 1.13582 14.6343 1.13596 14.615C1.13596 14.5971 1.14053 14.5808 1.14796 14.5657L1.14739 14.5662C1.15934 14.5389 1.16536 14.5096 1.1651 14.4801V14.479C1.16205 14.4678 1.17539 14.4409 1.2051 14.3983L1.25881 14.322L1.32167 14.2499L1.39309 14.1736C1.435 14.1285 1.52718 14.0312 1.66965 13.8817L1.97764 13.56C2.04012 13.495 2.1323 13.3836 2.25421 13.2259C2.35363 13.1008 2.4502 12.9589 2.53477 12.8105L2.54448 12.7926C2.61572 12.663 2.69609 12.4966 2.78561 12.2933C2.8639 12.1216 2.94332 11.9077 3.00846 11.6884L3.01818 11.6505C2.14955 11.1995 1.39891 10.5693 0.821685 9.8065L0.807971 9.78754C0.28417 9.09672 0.00163957 8.26785 0 7.41716V7.41608C0.00495258 6.41503 0.386693 5.44851 1.07653 4.69044L1.07139 4.69586C1.84127 3.8311 2.82411 3.15945 3.933 2.7403L3.98214 2.72406C5.1381 2.2659 6.48148 2 7.89 2L8.00543 2.00054H7.99971L8.10943 2C9.51795 2 10.8613 2.2659 12.0859 2.74789L12.0173 2.72406C13.1411 3.13981 14.1382 3.81387 14.9189 4.68557L14.9275 4.69531C15.6143 5.45218 15.9941 6.41619 15.9989 7.41445V7.41608L16 7.4177Z" fill="#F1F1F1" fill-opacity="0.7"/>
</g>
</svg>
