<svg width="20" height="20" viewBox="0 0 20 20" fill="none" xmlns="http://www.w3.org/2000/svg">
<path fill-rule="evenodd" clip-rule="evenodd" d="M8.59199 1.875H11.4087C11.5895 1.875 11.747 1.875 11.8953 1.89833C12.1843 1.94462 12.4583 2.05788 12.6956 2.22907C12.933 2.40025 13.1269 2.6246 13.262 2.88417C13.332 3.0175 13.3812 3.16667 13.4387 3.3375L13.5312 3.61667C13.595 3.84347 13.7338 4.04194 13.925 4.17967C14.1161 4.3174 14.3483 4.38626 14.5837 4.375H17.0837C17.2494 4.375 17.4084 4.44085 17.5256 4.55806C17.6428 4.67527 17.7087 4.83424 17.7087 5C17.7087 5.16576 17.6428 5.32473 17.5256 5.44194C17.4084 5.55915 17.2494 5.625 17.0837 5.625H2.91699C2.75123 5.625 2.59226 5.55915 2.47505 5.44194C2.35784 5.32473 2.29199 5.16576 2.29199 5C2.29199 4.83424 2.35784 4.67527 2.47505 4.55806C2.59226 4.44085 2.75123 4.375 2.91699 4.375H5.49199C5.71458 4.36966 5.9296 4.29314 6.10552 4.15667C6.28143 4.02019 6.409 3.83094 6.46949 3.61667L6.56283 3.3375C6.61949 3.16667 6.66866 3.0175 6.73783 2.88417C6.87299 2.6245 7.06707 2.40009 7.30453 2.2289C7.542 2.05771 7.81625 1.9445 8.10533 1.89833C8.25366 1.875 8.41116 1.875 8.59116 1.875H8.59199ZM7.50699 4.375C7.56551 4.2604 7.61429 4.1411 7.65282 4.01833L7.73616 3.76833C7.81199 3.54083 7.82949 3.495 7.84699 3.46167C7.89198 3.37501 7.95664 3.30009 8.0358 3.24293C8.11496 3.18577 8.20641 3.14795 8.30283 3.1325C8.41146 3.12332 8.52055 3.12082 8.62949 3.125H11.3712C11.6112 3.125 11.6612 3.12667 11.6978 3.13333C11.7942 3.14869 11.8856 3.18639 11.9647 3.2434C12.0439 3.30041 12.1086 3.37516 12.1537 3.46167C12.1712 3.495 12.1887 3.54083 12.2645 3.76917L12.3478 4.01917L12.3803 4.1125C12.4128 4.20417 12.4512 4.29083 12.4937 4.375H7.50699Z" fill="#FF5724"/>
<path d="M4.92956 7.04173C4.9185 6.8763 4.84219 6.72203 4.7174 6.61287C4.59261 6.50371 4.42957 6.44859 4.26414 6.45964C4.09871 6.47069 3.94445 6.54701 3.83528 6.6718C3.72612 6.79659 3.671 6.95963 3.68206 7.12506L4.06872 12.9184C4.13956 13.9867 4.19706 14.8501 4.33206 15.5284C4.47289 16.2326 4.71122 16.8209 5.20456 17.2817C5.69706 17.7434 6.30039 17.9426 7.01289 18.0351C7.69789 18.1251 8.56289 18.1251 9.63455 18.1251H10.3671C11.4379 18.1251 12.3037 18.1251 12.9887 18.0351C13.7004 17.9426 14.3037 17.7434 14.7971 17.2817C15.2896 16.8209 15.5279 16.2317 15.6687 15.5284C15.8037 14.8509 15.8604 13.9867 15.9321 12.9184L16.3187 7.12506C16.3298 6.95963 16.2747 6.79659 16.1655 6.6718C16.0563 6.54701 15.9021 6.47069 15.7366 6.45964C15.5712 6.44859 15.4082 6.50371 15.2834 6.61287C15.1586 6.72203 15.0823 6.8763 15.0712 7.04173L14.6879 12.7917C14.6129 13.9142 14.5596 14.6959 14.4429 15.2834C14.3287 15.8542 14.1704 16.1559 13.9429 16.3692C13.7146 16.5826 13.4029 16.7209 12.8262 16.7959C12.2321 16.8734 11.4487 16.8751 10.3229 16.8751H9.67789C8.55289 16.8751 7.76956 16.8734 7.17456 16.7959C6.59789 16.7209 6.28622 16.5826 6.05789 16.3692C5.83039 16.1559 5.67206 15.8542 5.55789 15.2842C5.44122 14.6959 5.38789 13.9142 5.31289 12.7909L4.92956 7.04173Z" fill="#FF5724"/>
<path d="M7.85452 8.54511C8.01939 8.52859 8.18406 8.57821 8.31236 8.68306C8.44065 8.78792 8.52206 8.93942 8.53869 9.10428L8.95535 13.2709C8.96756 13.4335 8.91576 13.5944 8.81101 13.7193C8.70625 13.8442 8.55684 13.9233 8.39463 13.9396C8.23242 13.9559 8.07026 13.9082 7.94274 13.8066C7.81521 13.7051 7.73242 13.5577 7.71202 13.3959L7.29535 9.22928C7.27883 9.06441 7.32845 8.89973 7.43331 8.77144C7.53816 8.64314 7.68967 8.56174 7.85452 8.54511ZM12.1462 8.54511C12.3109 8.56174 12.4623 8.64303 12.5671 8.77114C12.6719 8.89925 12.7216 9.06371 12.7054 9.22844L12.2887 13.3951C12.268 13.5565 12.1852 13.7036 12.0578 13.8049C11.9305 13.9062 11.7686 13.9538 11.6066 13.9377C11.4447 13.9215 11.2954 13.8428 11.1906 13.7183C11.0858 13.5938 11.0337 13.4333 11.0454 13.2709L11.462 9.10428C11.4787 8.93958 11.5599 8.78821 11.6881 8.68338C11.8162 8.57855 11.9815 8.52882 12.1462 8.54511Z" fill="#FF5724"/>
</svg>
