<svg width="28" height="28" viewBox="0 0 28 28" fill="none" xmlns="http://www.w3.org/2000/svg">
<path fill-rule="evenodd" clip-rule="evenodd" d="M6.125 16.9167C6.125 16.6847 6.21719 16.4621 6.38128 16.298C6.54538 16.1339 6.76794 16.0417 7 16.0417H16.3333C16.5654 16.0417 16.788 16.1339 16.9521 16.298C17.1161 16.4621 17.2083 16.6847 17.2083 16.9167C17.2083 17.1488 17.1161 17.3714 16.9521 17.5355C16.788 17.6996 16.5654 17.7917 16.3333 17.7917H7C6.76794 17.7917 6.54538 17.6996 6.38128 17.5355C6.21719 17.3714 6.125 17.1488 6.125 16.9167ZM6.125 21.0001C6.125 20.768 6.21719 20.5455 6.38128 20.3814C6.54538 20.2173 6.76794 20.1251 7 20.1251H13.4167C13.6487 20.1251 13.8713 20.2173 14.0354 20.3814C14.1995 20.5455 14.2917 20.768 14.2917 21.0001C14.2917 21.2321 14.1995 21.4547 14.0354 21.6188C13.8713 21.7829 13.6487 21.8751 13.4167 21.8751H7C6.76794 21.8751 6.54538 21.7829 6.38128 21.6188C6.21719 21.4547 6.125 21.2321 6.125 21.0001Z" fill="#B486FF"/>
<path fill-rule="evenodd" clip-rule="evenodd" d="M14.2916 3.30637C13.7549 3.21537 13.0223 3.20837 11.7016 3.20837C9.46509 3.20837 7.87492 3.21071 6.67092 3.37171C5.49025 3.52921 4.81242 3.82671 4.31892 4.31904C3.82542 4.81254 3.52909 5.48921 3.37159 6.66287C3.21059 7.86221 3.20825 9.44187 3.20825 11.6679V16.3345C3.20825 18.5582 3.21059 20.1379 3.37159 21.3372C3.52909 22.5109 3.82542 23.1875 4.31892 23.6822C4.81242 24.1745 5.48909 24.4709 6.66275 24.6284C7.86208 24.7905 9.44175 24.7917 11.6666 24.7917H16.3333C18.5581 24.7917 20.1389 24.7894 21.3383 24.6284C22.5108 24.4709 23.1874 24.1745 23.6809 23.681C24.1744 23.1875 24.4708 22.5109 24.6283 21.3372C24.7893 20.139 24.7916 18.5582 24.7916 16.3334V15.8235C24.7916 14.0315 24.7799 13.1822 24.5886 12.5417H20.9369C19.6151 12.5417 18.5359 12.5417 17.6819 12.4274C16.7918 12.3072 16.0194 12.0482 15.4023 11.431C14.7851 10.8139 14.5261 10.0427 14.4059 9.15021C14.2916 8.29854 14.2916 7.21821 14.2916 5.89521V3.30637ZM16.0416 4.21171V5.83337C16.0416 7.23337 16.0439 8.19471 16.1408 8.91687C16.2341 9.61454 16.4021 9.95637 16.6401 10.1932C16.8769 10.4312 17.2188 10.5992 17.9164 10.6925C18.6386 10.7894 19.5999 10.7917 20.9999 10.7917H23.3566C22.9089 10.3654 22.4538 9.94689 21.9916 9.53637L17.3728 5.37954C16.937 4.98125 16.4932 4.59189 16.0416 4.21171ZM11.8708 1.45837C13.4866 1.45837 14.5308 1.45837 15.4909 1.82587C16.4511 2.19454 17.2234 2.88987 18.4193 3.96671L18.5441 4.07871L23.1618 8.23554L23.3076 8.36621C24.6889 9.60871 25.5826 10.4125 26.0621 11.4905C26.5428 12.5685 26.5428 13.7702 26.5416 15.6275V16.3987C26.5416 18.543 26.5416 20.2417 26.3631 21.5705C26.1788 22.9379 25.7914 24.045 24.9188 24.9189C24.0449 25.7915 22.9378 26.1789 21.5704 26.3632C20.2404 26.5417 18.5429 26.5417 16.3986 26.5417H11.6013C9.45692 26.5417 7.75825 26.5417 6.42942 26.3632C5.06209 26.1789 3.95492 25.7915 3.08109 24.9189C2.20842 24.045 1.82109 22.9379 1.63675 21.5705C1.45825 20.2405 1.45825 18.543 1.45825 16.3987V11.6014C1.45825 9.45704 1.45825 7.75837 1.63675 6.42954C1.82109 5.06221 2.20842 3.95504 3.08109 3.08121C3.95609 2.20737 5.06559 1.82121 6.43875 1.63687C7.77342 1.45837 9.48025 1.45837 11.6363 1.45837H11.8708Z" fill="#B486FF"/>
</svg>
