<svg width="28" height="28" viewBox="0 0 28 28" fill="none" xmlns="http://www.w3.org/2000/svg">
<path d="M2.33325 14C2.33325 8.50037 2.33325 5.75054 4.04125 4.04137C5.75158 2.33337 8.50025 2.33337 13.9999 2.33337C19.4996 2.33337 22.2494 2.33337 23.9574 4.04137C25.6666 5.75171 25.6666 8.50037 25.6666 14C25.6666 19.4997 25.6666 22.2495 23.9574 23.9575C22.2506 25.6667 19.4996 25.6667 13.9999 25.6667C8.50025 25.6667 5.75042 25.6667 4.04125 23.9575C2.33325 22.2507 2.33325 19.4997 2.33325 14Z" stroke="#B486FF" stroke-width="2.4"/>
<path d="M18.6666 11.6667C19.9553 11.6667 20.9999 10.622 20.9999 9.33333C20.9999 8.04467 19.9553 7 18.6666 7C17.3779 7 16.3333 8.04467 16.3333 9.33333C16.3333 10.622 17.3779 11.6667 18.6666 11.6667Z" stroke="#B486FF" stroke-width="2.4"/>
<path d="M2.33325 14.5834L4.37725 12.7949C4.88958 12.347 5.55296 12.1105 6.2331 12.1332C6.91324 12.156 7.55933 12.4363 8.04059 12.9174L13.0456 17.9224C13.434 18.3107 13.9469 18.5496 14.4941 18.597C15.0412 18.6443 15.5876 18.4972 16.0369 18.1814L16.3858 17.9364C17.034 17.4812 17.8174 17.2592 18.6081 17.3069C19.3987 17.3546 20.1498 17.6691 20.7386 18.1989L24.4999 21.5834" stroke="#B486FF" stroke-width="2.4" stroke-linecap="round"/>
</svg>
