<svg width="12" height="11" viewBox="0 0 12 11" fill="none" xmlns="http://www.w3.org/2000/svg">
<path id="Vector" d="M7.50147 9.60094L7.50091 9.60141C7.18498 9.86721 6.90613 10.0975 6.63864 10.264C6.37012 10.4311 6.16496 10.5 6 10.5C5.83517 10.5 5.63005 10.4311 5.36136 10.2638C5.09369 10.0972 4.81484 9.86705 4.49863 9.60167C4.32998 9.46004 4.15859 9.3188 3.98639 9.17688C2.2832 7.77331 0.5 6.30381 0.5 3.73927C0.5 2.35552 1.23426 1.21467 2.20632 0.741544C3.13692 0.288597 4.40314 0.394921 5.62899 1.75177L5.99996 2.16237L6.37097 1.7518C7.59679 0.395288 8.86301 0.289057 9.79366 0.742091C10.7657 1.2153 11.5 2.35616 11.5 3.73991C11.5 6.30605 9.7141 7.77653 8.00942 9.18013C7.83866 9.32073 7.66872 9.46065 7.50147 9.60094Z" fill="#FF5724" stroke="#181719"/>
</svg>
