<svg width="16" height="17" viewBox="0 0 16 17" fill="none" xmlns="http://www.w3.org/2000/svg">
<path d="M9.9854 13.5296L9.98461 13.5303C9.56313 13.8784 9.19315 14.1784 8.83879 14.3949C8.48337 14.6121 8.21435 14.7 8 14.7C7.78582 14.7 7.51687 14.612 7.16121 14.3947C6.8066 14.178 6.43662 13.8782 6.01474 13.5306C5.78997 13.3453 5.56187 13.1606 5.33292 12.9753C3.05819 11.1341 0.7 9.22531 0.7 5.89504C0.7 4.10591 1.66678 2.62789 2.95182 2.0138C4.18325 1.42533 5.8604 1.56302 7.4849 3.32842L7.99994 3.88814L8.51505 3.32847C10.1395 1.5635 11.8167 1.42594 13.0481 2.01452C14.3332 2.62871 15.3 4.10675 15.3 5.89588C15.3 9.22825 12.9382 11.1383 10.6614 12.9796C10.4344 13.1632 10.2083 13.3461 9.9854 13.5296Z" stroke="#F1F1F1" stroke-opacity="0.7" stroke-width="1.4"/>
</svg>
