<svg width="28" height="28" viewBox="0 0 28 28" fill="none" xmlns="http://www.w3.org/2000/svg">
<path d="M13.9954 25C11.656 24.999 9.37793 24.2523 7.49195 22.8682C5.60598 21.4842 4.21035 19.5349 3.50779 17.3036C2.80523 15.0722 2.83233 12.675 3.58514 10.4601C4.33796 8.24523 5.77728 6.32801 7.69406 4.98695C9.61083 3.64589 11.9052 2.95082 14.244 3.00271C16.5827 3.0546 18.8441 3.85074 20.6995 5.27549C22.5549 6.70025 23.9078 8.67941 24.5616 10.9255C25.2154 13.1716 25.1362 15.5677 24.3354 17.7657C24.1743 18.1869 23.9147 18.5635 23.5782 18.8638L23.4315 18.9995C23.0028 19.395 22.4682 19.657 21.893 19.7535C21.3177 19.8499 20.7269 19.7767 20.1926 19.5427C19.6583 19.3088 19.2038 18.9242 18.8846 18.436C18.5654 17.9478 18.3954 17.3773 18.3954 16.794V14M18.3954 14C18.3954 15.1669 17.9318 16.2861 17.1066 17.1113C16.2815 17.9364 15.1623 18.4 13.9954 18.4C12.8284 18.4 11.7093 17.9364 10.8841 17.1113C10.0589 16.2861 9.59536 15.1669 9.59536 14C9.59536 12.833 10.0589 11.7139 10.8841 10.8887C11.7093 10.0636 12.8284 9.6 13.9954 9.6C15.1623 9.6 16.2815 10.0636 17.1066 10.8887C17.9318 11.7139 18.3954 12.833 18.3954 14Z" stroke="#B486FF" stroke-width="2.4" stroke-linecap="round"/>
</svg>
