<svg width="48" height="48" viewBox="0 0 48 48" fill="none" xmlns="http://www.w3.org/2000/svg">
<rect width="48" height="48" rx="4" fill="#476FFE"/>
<path d="M8.206 29.8125V17.7885H13.372C14.92 17.7885 16.072 18.1305 16.828 18.8145C17.584 19.4865 17.962 20.4585 17.962 21.7305C17.962 23.0025 17.584 23.9745 16.828 24.6465C16.072 25.3185 14.92 25.6545 13.372 25.6545H10.834V29.8125H8.206ZM10.834 23.5485H12.94C13.708 23.5485 14.296 23.4105 14.704 23.1345C15.112 22.8585 15.316 22.3905 15.316 21.7305C15.316 21.0705 15.112 20.6025 14.704 20.3265C14.308 20.0385 13.72 19.8945 12.94 19.8945H10.834V23.5485ZM19.8427 29.8125V17.7885H24.2167C26.3407 17.7885 27.9607 18.2925 29.0767 19.3005C30.1927 20.3085 30.7507 21.8085 30.7507 23.8005C30.7507 25.7925 30.1927 27.2925 29.0767 28.3005C27.9607 29.3085 26.3407 29.8125 24.2167 29.8125H19.8427ZM22.4707 27.5985H24.1807C25.5847 27.5985 26.5867 27.2865 27.1867 26.6625C27.7867 26.0265 28.0867 25.0725 28.0867 23.8005C28.0867 22.5285 27.7867 21.5805 27.1867 20.9565C26.5867 20.3205 25.5847 20.0025 24.1807 20.0025H22.4707V27.5985ZM32.622 29.8125V17.7885H41.37V20.0025H35.25V22.5765H40.83V24.6645H35.25V29.8125H32.622Z" fill="#476FFE"/>
</svg>