<svg width="28" height="28" viewBox="0 0 28 28" fill="none" xmlns="http://www.w3.org/2000/svg">
<path d="M2.33325 14C2.33325 8.50037 2.33325 5.75054 4.04125 4.04137C5.75159 2.33337 8.50025 2.33337 13.9999 2.33337C19.4996 2.33337 22.2494 2.33337 23.9574 4.04137C25.6666 5.75171 25.6666 8.50037 25.6666 14C25.6666 19.4997 25.6666 22.2495 23.9574 23.9575C22.2506 25.6667 19.4996 25.6667 13.9999 25.6667C8.50025 25.6667 5.75042 25.6667 4.04125 23.9575C2.33325 22.2507 2.33325 19.4997 2.33325 14Z" stroke="#B486FF" stroke-width="2"/>
<path d="M8.1665 20.0004V16.5004M13.9998 20.0004C13.9998 20.0004 13.9998 9.50037 13.9998 8.00037M19.8332 20.0004V12.5004" stroke="#B486FF" stroke-width="3" stroke-linecap="round"/>
</svg>
