<svg width="18" height="19" viewBox="0 0 18 19" fill="none" xmlns="http://www.w3.org/2000/svg">
<path d="M4.3125 1.25C4.46168 1.25 4.60476 1.30926 4.71025 1.41475C4.81574 1.52024 4.875 1.66332 4.875 1.8125V3.2L6.165 2.942C7.40307 2.69429 8.68646 2.81207 9.85875 3.281L10.1685 3.40475C11.2372 3.8322 12.4134 3.91198 13.53 3.63275C13.6351 3.60646 13.7456 3.61193 13.8475 3.64846C13.9495 3.68499 14.0384 3.75095 14.1028 3.83798C14.1673 3.92502 14.2045 4.02922 14.2097 4.1374C14.215 4.24559 14.188 4.3529 14.1323 4.44575L13.1738 6.044C12.9173 6.4715 12.789 6.6845 12.759 6.91625C12.7463 7.01375 12.7463 7.11125 12.759 7.20875C12.789 7.4405 12.9173 7.65425 13.1738 8.081L14.3438 10.031C14.398 10.1214 14.4303 10.2232 14.4381 10.3284C14.4459 10.4335 14.4289 10.539 14.3886 10.6364C14.3483 10.7338 14.2857 10.8204 14.2059 10.8893C14.1261 10.9582 14.0313 11.0074 13.929 11.033L13.854 11.0518C12.5269 11.3837 11.1289 11.2889 9.85875 10.781C8.68669 10.3122 7.40357 10.1944 6.16575 10.442L4.875 10.7V16.8125C4.875 16.9617 4.81574 17.1048 4.71025 17.2102C4.60476 17.3157 4.46168 17.375 4.3125 17.375C4.16332 17.375 4.02024 17.3157 3.91475 17.2102C3.80926 17.1048 3.75 16.9617 3.75 16.8125V1.8125C3.75 1.66332 3.80926 1.52024 3.91475 1.41475C4.02024 1.30926 4.16332 1.25 4.3125 1.25Z" fill="white"/>
</svg>
